<svg id="Flat" height="512" viewBox="0 0 512 512" width="512" xmlns="http://www.w3.org/2000/svg"><g><path d="m281.37 230.063a40.02 40.02 0 0 0 -17.37-58.735v-87.328a60 60 0 0 0 -60-60h-56a60 60 0 0 0 -60 60v87.328a40.02 40.02 0 0 0 -17.37 58.735 56.006 56.006 0 1 0 65.37 89.129 56 56 0 0 0 80 0 56 56 0 1 0 65.37-89.129z" fill="#fb8656"/><path d="m40.339 286.2a56.011 56.011 0 0 0 52.889 49.737l-15.867-30.481-.174-.306a38.013 38.013 0 0 0 -36.848-18.95z" fill="#f15a57"/><path d="m176 256c-75.111 0-136 89.543-136 200h289a292.649 292.649 0 0 0 -2.745-40.178c-.365-2.628-17.764-5.236-18.2-7.825-14.617-87.273-68.196-151.997-132.055-151.997z" fill="#fdbf67"/><path d="m40 456c0-60.3 18.147-114.369 46.848-151.037 17.926 20.947 41.6 37.853 66.081 50.913 20.27 10.813 41.813 19.888 59.331 34.751 21.614 18.34 35.54 45.263 38.788 73.373h-211.048z" fill="#fdb651"/><path d="m216 264-40 56-40-56 8-40h64z" fill="#ffd4cf"/><path d="m212.485 246.424-4.485-22.424h-64l-4.515 22.577 5.893 3.646a58.008 58.008 0 0 0 61.254-.141z" fill="#fbb8b0"/><path d="m260 128h-20v-8h-.147a28 28 0 0 1 -24.009-13.594l-15.844-26.406-.7 1.16a80 80 0 0 1 -68.6 38.84h-18.7v8h-20a20 20 0 0 0 -20 20v16a20 20 0 0 0 20 20h20v-3.455a50 50 0 0 0 23.7 42.522l19.153 11.848a40 40 0 0 0 42.244-.1l19.408-12.13a50 50 0 0 0 23.5-42.4v3.715h20a20 20 0 0 0 20-20v-16a20 20 0 0 0 -20.005-20z" fill="#ffd4cf"/><path d="m24 456h464v32h-464z" fill="#25b1fa"/><path d="m88 426.97-60.267-91.27a20 20 0 0 1 8.846-30.194l.187-.075a20 20 0 0 1 24.792 8.647l50.442 96.892z" fill="#fb8656"/><path d="m112 408a40 40 0 0 1 40 40v8a0 0 0 0 1 0 0h-80a0 0 0 0 1 0 0v-8a40 40 0 0 1 40-40z" fill="#ffd4cf"/><path d="m408 184a48 48 0 1 0 -64.982 44.909l-7.018 35.091h48l-7.018-35.091a48.018 48.018 0 0 0 31.018-44.909z" fill="#fdbf67"/><rect fill="#4dccff" height="160" rx="10" transform="matrix(-1 0 0 -1 720 688)" width="256" x="232" y="264"/><path d="m406.222 400-12.482-56.169a10 10 0 0 0 -9.762-7.831h-47.956a10 10 0 0 0 -9.762 7.831l-12.482 56.169h-81.778v14a10 10 0 0 0 10 10h236a10 10 0 0 0 10-10v-14z" fill="#25b1fa"/><circle cx="360" cy="200" fill="#fb8656" r="32"/><path d="m400 456h-80v-24l16-88h48l16 88z" fill="#4dccff"/><path d="m176 216c-13.458 0-24-8.785-24-20h16c0 1.41 3.037 4 8 4s8-2.59 8-4h16c0 11.215-10.542 20-24 20z" fill="#d16054"/><path d="m352 192h16v16h-16z" fill="#fffdfa"/><path d="m352 296h56v16h-56z" fill="#f2faff"/><path d="m312 296h24v16h-24z" fill="#f2faff"/><g fill="#d16054"><path d="m136 144h16v16h-16z"/><path d="m200 144h16v16h-16z"/></g></g></svg>